<?xml version="1.0" encoding="utf-8"?>
<!-- Generator: Adobe Illustrator 21.0.0, SVG Export Plug-In . SVG Version: 6.00 Build 0)  -->
<svg version="1.1"
	 id="svg2" inkscape:export-filename="microcloud-icon-512.png" inkscape:export-xdpi="45" inkscape:export-ydpi="45" inkscape:version="0.91 r13725" sodipodi:docname="microcloud-icon.svg" xmlns:cc="http://creativecommons.org/ns#" xmlns:dc="http://purl.org/dc/elements/1.1/" xmlns:inkscape="http://www.inkscape.org/namespaces/inkscape" xmlns:rdf="http://www.w3.org/1999/02/22-rdf-syntax-ns#" xmlns:sodipodi="http://sodipodi.sourceforge.net/DTD/sodipodi-0.dtd" xmlns:svg="http://www.w3.org/2000/svg"
	 xmlns="http://www.w3.org/2000/svg" xmlns:xlink="http://www.w3.org/1999/xlink" x="0px" y="0px" viewBox="0 0 16 16"
	 style="enable-background:new 0 0 16 16;" xml:space="preserve">
<style type="text/css">
	.st0{fill:#FFFFFF;}
</style>
<sodipodi:namedview  bordercolor="#666666" borderopacity="1" fit-margin-bottom="0" fit-margin-left="0" fit-margin-right="0" fit-margin-top="0" gridtolerance="10" guidetolerance="10" id="namedview8" inkscape:current-layer="svg2" inkscape:cx="-225.44227" inkscape:cy="284.0991" inkscape:pageopacity="0" inkscape:pageshadow="2" inkscape:window-height="480" inkscape:window-width="640" inkscape:zoom="0.32" objecttolerance="10" pagecolor="#ffffff" showgrid="false">
	</sodipodi:namedview>
<circle cx="8" cy="8" r="8"/>
<g>
	<g>
		<path class="st0" d="M5,11.6c-1.4,0.2-2.9-1.3-2-2.7c0.6-0.8,1.5-0.8,2.4-0.6c1.3,0.2,2.2,0.9,3.3,1.5c0.7,0.4,2.3,1,3.1,0.5
			c0.5-0.3,0.3-0.8-0.2-0.8c-0.1,0-0.3,0-0.5,0c-0.9-0.1-1.7-0.5-2.4-1C6.9,7.3,4,6,2.3,7.8c-1.1,1.1-1.1,2.9,0,3.9
			c0.5,0.5,1.2,0.8,1.9,0.7c0.3,0,0.8-0.1,1-0.3C5.4,12,5.5,11.5,5,11.6z"/>
		<path class="st0" d="M14.5,9.3C14.3,8,13.1,7,11.8,7.1c-0.4,0-1.4,0.2-1.1,0.7c0.2,0.4,1.4,0.2,1.8,0.5c1.2,0.9,0.8,2.7-0.6,3
			c-0.9,0.2-2-0.1-2.8-0.5c-1-0.4-1.8-1.1-2.8-1.4c-0.6-0.1-1.4-0.2-1.9,0C3.9,9.6,3.8,10,4.3,10.2c0.6,0.2,1.3,0.1,2,0.4
			c0.9,0.4,1.6,1,2.4,1.4C10.9,13.1,15.1,12.9,14.5,9.3z"/>
		<path class="st0" d="M6.3,6.4C7.1,7,8.6,6.6,8.8,5.6C8.9,5.3,8.9,5,8.6,4.8C8.3,4.6,8,4.6,7.8,4.8c-0.3,0.3,0,0.6-0.1,0.8
			C7.1,6.4,6.2,5,6.8,4.2C7.5,3.3,9,3.7,9.5,4.7c0.1,0.3,0.2,0.7,0.1,1c0,0.3-0.4,0.7-0.3,1c0,0.8,0.8,0.6,1.1,0.1
			c1-1.3,0.3-3.3-1-4C6.5,1.1,3.7,4.6,6.3,6.4z"/>
	</g>
</g>
</svg>
