<?xml version="1.0" encoding="utf-8"?>
<!-- Generator: Adobe Illustrator 21.0.0, SVG Export Plug-In . SVG Version: 6.00 Build 0)  -->
<svg version="1.1" id="Ebene_1" xmlns="http://www.w3.org/2000/svg" xmlns:xlink="http://www.w3.org/1999/xlink" x="0px" y="0px"
	 viewBox="0 0 64 64" style="enable-background:new 0 0 64 64;" xml:space="preserve">
<style type="text/css">
	.st0{fill:#FFFFFF;}
</style>
<path class="st0" d="M32,0C14.3,0,0,14.3,0,32s14.3,32,32,32s32-14.3,32-32S49.7,0,32,0z M28,15.4c0-2.2,1.8-4,4-4h0
	c2.2,0,4,1.8,4,4v20.2c0,2.2-1.8,4-4,4h0c-2.2,0-4-1.8-4-4V15.4z M32,52.6c-2.7,0-5-2.2-5-5s2.2-5,5-5s5,2.2,5,5S34.7,52.6,32,52.6z
	"/>
</svg>
