<?xml version="1.0" encoding="utf-8"?>
<!-- Generator: Adobe Illustrator 21.0.0, SVG Export Plug-In . SVG Version: 6.00 Build 0)  -->
<svg version="1.1"
	 id="svg2" inkscape:export-filename="microcloud-icon-512.png" inkscape:export-xdpi="45" inkscape:export-ydpi="45" inkscape:version="0.91 r13725" sodipodi:docname="microcloud-icon.svg" xmlns:cc="http://creativecommons.org/ns#" xmlns:dc="http://purl.org/dc/elements/1.1/" xmlns:inkscape="http://www.inkscape.org/namespaces/inkscape" xmlns:rdf="http://www.w3.org/1999/02/22-rdf-syntax-ns#" xmlns:sodipodi="http://sodipodi.sourceforge.net/DTD/sodipodi-0.dtd" xmlns:svg="http://www.w3.org/2000/svg"
	 xmlns="http://www.w3.org/2000/svg" xmlns:xlink="http://www.w3.org/1999/xlink" x="0px" y="0px" viewBox="0 0 16 16"
	 style="enable-background:new 0 0 16 16;" xml:space="preserve">
<style type="text/css">
	.st0{fill:#FFFFFF;}
</style>
<sodipodi:namedview  bordercolor="#666666" borderopacity="1" fit-margin-bottom="0" fit-margin-left="0" fit-margin-right="0" fit-margin-top="0" gridtolerance="10" guidetolerance="10" id="namedview8" inkscape:current-layer="svg2" inkscape:cx="-225.44227" inkscape:cy="284.0991" inkscape:pageopacity="0" inkscape:pageshadow="2" inkscape:window-height="480" inkscape:window-width="640" inkscape:zoom="0.32" objecttolerance="10" pagecolor="#ffffff" showgrid="false">
	</sodipodi:namedview>
<path class="st0" d="M8,0C3.6,0,0,3.6,0,8s3.6,8,8,8s8-3.6,8-8S12.4,0,8,0z M9.4,2.8c1.3,0.7,2,2.7,1,4c-0.3,0.5-1.1,0.7-1.1-0.1
	C9.2,6.4,9.6,6,9.6,5.7c0.1-0.3,0-0.7-0.1-1c-0.5-1-2-1.4-2.7-0.5C6.2,5,7.1,6.4,7.7,5.6c0.1-0.2-0.2-0.5,0.1-0.8
	c0.2-0.2,0.5-0.2,0.8,0C8.9,5,8.9,5.3,8.8,5.6C8.6,6.6,7.1,7,6.3,6.4C3.7,4.6,6.5,1.1,9.4,2.8z M5.2,12.1c-0.2,0.2-0.7,0.3-1,0.3
	c-0.7,0.1-1.4-0.2-1.9-0.7c-1.1-1-1.1-2.8,0-3.9C4,6,6.9,7.3,8.7,8.5c0.7,0.5,1.5,0.9,2.4,1c0.2,0,0.4,0,0.5,0
	c0.5,0,0.7,0.5,0.2,0.8c-0.8,0.5-2.4-0.1-3.1-0.5c-1.1-0.6-2-1.3-3.3-1.5C4.5,8.1,3.6,8.1,3,8.9c-0.9,1.4,0.6,2.9,2,2.7
	C5.5,11.5,5.4,12,5.2,12.1z M8.7,12c-0.8-0.4-1.5-1-2.4-1.4c-0.7-0.3-1.4-0.2-2-0.4C3.8,10,3.9,9.6,4.4,9.4c0.5-0.2,1.3-0.1,1.9,0
	c1,0.3,1.8,1,2.8,1.4c0.8,0.4,1.9,0.7,2.8,0.5c1.4-0.3,1.8-2.1,0.6-3c-0.4-0.3-1.6-0.1-1.8-0.5c-0.3-0.5,0.7-0.7,1.1-0.7
	C13.1,7,14.3,8,14.5,9.3C15.1,12.9,10.9,13.1,8.7,12z"/>
</svg>
