<?xml version="1.0" encoding="utf-8"?>
<!-- Generator: Adobe Illustrator 21.0.0, SVG Export Plug-In . SVG Version: 6.00 Build 0)  -->
<svg version="1.1" id="Ebene_1" xmlns="http://www.w3.org/2000/svg" xmlns:xlink="http://www.w3.org/1999/xlink" x="0px" y="0px"
	 viewBox="0 0 64 64" style="enable-background:new 0 0 64 64;" xml:space="preserve">
<style type="text/css">
	.st0{fill:#FFFFFF;}
</style>
<path class="st0" d="M32,0.1c-17.7,0-32,14.3-32,32s14.3,32,32,32s32-14.3,32-32S49.7,0.1,32,0.1z M52.6,36.4l-18,18
	c-0.7,0.7-1.6,1.1-2.5,1.1c-1,0-1.9-0.4-2.5-1.1l-18-18c-0.9-0.9-1.3-2.2-1-3.5c0.3-1.3,1.3-2.2,2.6-2.6c1.3-0.3,2.6,0,3.5,1
	l11.8,11.8V12.3c0-2,1.6-3.6,3.6-3.6c2,0,3.6,1.6,3.6,3.6v30.9l11.9-11.9c1.4-1.4,3.7-1.4,5.1,0c0.7,0.7,1.1,1.6,1.1,2.5
	C53.7,34.9,53.3,35.8,52.6,36.4z"/>
</svg>
