<?xml version="1.0" encoding="utf-8"?>
<!-- Generator: Adobe Illustrator 21.0.0, SVG Export Plug-In . SVG Version: 6.00 Build 0)  -->
<svg version="1.1"
	 id="svg2" inkscape:export-filename="microcloud-icon-512.png" inkscape:export-xdpi="45" inkscape:export-ydpi="45" inkscape:version="0.91 r13725" sodipodi:docname="microcloud-icon.svg" xmlns:cc="http://creativecommons.org/ns#" xmlns:dc="http://purl.org/dc/elements/1.1/" xmlns:inkscape="http://www.inkscape.org/namespaces/inkscape" xmlns:rdf="http://www.w3.org/1999/02/22-rdf-syntax-ns#" xmlns:sodipodi="http://sodipodi.sourceforge.net/DTD/sodipodi-0.dtd" xmlns:svg="http://www.w3.org/2000/svg"
	 xmlns="http://www.w3.org/2000/svg" xmlns:xlink="http://www.w3.org/1999/xlink" x="0px" y="0px" viewBox="0 0 1024 1024"
	 style="enable-background:new 0 0 1024 1024;" xml:space="preserve">
<style type="text/css">
	.st0{fill:#FFFFFF;}
</style>
<sodipodi:namedview  bordercolor="#666666" borderopacity="1" fit-margin-bottom="0" fit-margin-left="0" fit-margin-right="0" fit-margin-top="0" gridtolerance="10" guidetolerance="10" id="namedview8" inkscape:current-layer="svg2" inkscape:cx="-225.44227" inkscape:cy="284.0991" inkscape:pageopacity="0" inkscape:pageshadow="2" inkscape:window-height="480" inkscape:window-width="640" inkscape:zoom="0.32" objecttolerance="10" pagecolor="#ffffff" showgrid="false">
	</sodipodi:namedview>
<g>
	<defs>
		<path id="SVGID_1_" d="M128,0h768c70.7,0,128,57.3,128,128v768c0,70.7-57.3,128-128,128H128C57.3,1024,0,966.7,0,896V128
			C0,57.3,57.3,0,128,0z"/>
	</defs>
	<clipPath id="SVGID_2_">
		<use xlink:href="#SVGID_1_"  style="overflow:visible;"/>
	</clipPath>
	<image style="overflow:visible;clip-path:url(#SVGID_2_);" width="1024" height="1024" xlink:href="CFFA91EA.jpg" >
	</image>
</g>
<g>
	<g>
		<path class="st0" d="M318.1,740.4l-1.2,0.2c-17.7,2.6-35,2.2-51.2-1.7c-16.2-3.4-30.8-10.4-43.5-19.5s-23.3-20.6-31.3-33.4
			c-8-12.8-12.9-27.2-15.1-41.8c-4.3-29.4,3.8-60.4,23.7-82.6c9.7-11.2,21.8-20.2,35.3-26.3c3.3-1.6,6.9-2.6,10.3-4.1
			c3.6-1,7.1-1.9,10.7-2.9c3.7-0.4,7.3-1.4,11-1.6l5.6-0.3l2.8-0.2c0.9-0.1,2.3,0,3.5,0c39.1-0.1,77,3.1,112.4,13
			c17.8,4.9,35,11.5,52.2,19.7c17.1,8.2,34.3,17.6,51.5,27.9c4.3,2.5,8.6,5.2,12.9,7.9c4.4,2.7,8.4,5.3,13.5,8.2
			c9.7,5.6,19.1,11.7,29.4,16.6c5,2.5,10.1,5.1,15.1,7.6l15.6,6.7c5.1,2.3,10.5,4.3,15.9,6.2c5.4,1.8,10.6,4,16.2,5.6
			c21.7,7.1,44.6,11.4,67.7,13.5c5.8,0.6,11.7,0.6,17.5,0.9c5.9-0.1,11.7,0,17.7-0.4c5.9-0.3,11.9-0.9,17.9-1.7
			c3.1-0.5,6-0.9,9.2-1.6c3.3-0.7,5.8-1.2,10.6-2.6c14.2-3.9,22.6-18.6,18.7-32.9c-3.9-14.2-18.6-22.6-32.9-18.7V602l-0.6,0.1
			l-1.2,0.1l-2.9,0.3c-2,0.2-4.2,0.2-6.3,0.4c-4.4,0.1-8.8,0.1-13.3-0.2c-4.4-0.1-9-0.7-13.5-1.1c-4.5-0.7-9.1-1.1-13.6-2
			c-18.1-3.2-36.1-8.5-53.5-15.5c-4.4-1.5-8.7-3.7-13-5.6c-4.3-1.9-8.6-3.8-12.8-6.1l-12.6-6.5l-12.3-7.3
			c-8.3-4.5-16.2-10.3-24.2-15.5c-3.8-2.5-8.4-5.7-12.8-8.7c-4.4-3.1-8.8-6.1-13.3-9.1c-17.9-12-36.6-23.9-56.7-34.3
			c-20.1-10.5-41.5-19.6-63.7-26.6c-22.1-7.1-44.9-12-67.4-14.9s-44.9-4.5-67-4.7c-1.5,0-2.6-0.1-4.3,0l-5,0.2l-10,0.5
			c-6.7,0.4-13.3,1.7-19.9,2.7c-6.5,1.4-13.1,3.1-19.5,4.9c-6.3,2.3-12.8,4.3-18.8,7.1c-24.6,10.9-46.6,27.2-64.3,47.4
			c-35.8,40.2-51.3,97.4-42,150c4.6,26.4,15.2,51.8,31.1,73.1c15.8,21.3,36.4,38.8,59.6,50.8s49,18.4,74.4,18.3
			c6.3-0.3,12.6-0.3,18.9-1c6.2-0.7,12.4-1.9,18.4-3.4c12.1-2.9,23.7-7.3,34.4-13.2c8-4.4,12.8-13.4,11.4-22.9
			C341.7,747.1,330.3,738.6,318.1,740.4z"/>
		<path class="st0" d="M928.7,598c-4.6-26.4-15.2-51.8-31.1-73.1c-15.8-21.3-36.4-38.8-59.6-50.8c-23.2-12-49-18.4-74.4-18.3
			c-6.3,0.3-12.6,0.3-18.9,1c-6.2,0.7-12.4,1.9-18.4,3.4c-12.1,2.9-23.7,7.3-34.4,13.2c-8,4.4-12.8,13.4-11.4,22.9
			c1.8,12.2,13.2,20.7,25.4,18.9l1.2-0.2c17.7-2.6,35-2.2,51.2,1.7c16.2,3.4,30.8,10.4,43.5,19.5s23.3,20.6,31.3,33.4
			c8,12.8,12.9,27.2,15.1,41.8c4.3,29.4-3.8,60.4-23.7,82.6c-9.7,11.2-21.8,20.2-35.3,26.3c-3.3,1.6-6.9,2.6-10.3,4.1
			c-3.6,1-7.1,1.9-10.7,2.9c-3.7,0.4-7.3,1.4-11,1.6l-5.6,0.3l-2.8,0.2c-0.9,0.1-2.3,0-3.5,0c-39.1,0.1-77-3.1-112.4-13
			c-17.8-4.9-35-11.5-52.2-19.7c-17.1-8.2-34.3-17.6-51.5-27.9c-4.3-2.5-8.6-5.2-12.9-7.9c-4.4-2.7-8.4-5.3-13.5-8.2
			c-9.7-5.6-19.1-11.7-29.4-16.6c-5-2.5-10.1-5.1-15.1-7.6l-15.6-6.7c-5.1-2.3-10.5-4.3-15.9-6.2c-5.4-1.8-10.6-4-16.2-5.6
			c-21.7-7.1-44.6-11.4-67.7-13.5c-5.8-0.6-11.7-0.6-17.5-0.9c-5.9,0.1-11.7,0-17.7,0.4c-5.9,0.3-11.9,0.9-17.9,1.7
			c-3.1,0.5-6,0.9-9.2,1.6c-3.3,0.7-5.8,1.2-10.6,2.6c-14.2,3.9-22.6,18.6-18.7,32.9c3.9,14.2,18.6,22.6,32.9,18.7v0.1l0.6-0.1
			l1.2-0.1l2.9-0.3c2-0.2,4.2-0.2,6.3-0.4c4.4-0.1,8.8-0.1,13.3,0.2c4.4,0.1,9,0.7,13.5,1.1c4.5,0.7,9.1,1.1,13.6,2
			c18.1,3.2,36.1,8.5,53.5,15.5c4.4,1.5,8.7,3.7,13,5.6c4.3,1.9,8.6,3.8,12.8,6.1l12.6,6.5l12.3,7.3c8.3,4.5,16.2,10.3,24.2,15.5
			c3.8,2.5,8.4,5.7,12.8,8.7c4.4,3.1,8.8,6.1,13.3,9.1c17.9,12,36.6,23.9,56.7,34.3c20.1,10.5,41.5,19.6,63.7,26.6
			c22.1,7.1,44.9,12,67.4,14.9s44.9,4.5,67,4.7c1.5,0,2.6,0.1,4.3,0l5-0.2l10-0.5c6.7-0.4,13.3-1.7,19.9-2.7
			c6.5-1.4,13.1-3.1,19.5-4.9c6.3-2.3,12.8-4.3,18.8-7.1c24.6-10.9,46.6-27.2,64.3-47.4C922.5,707.8,938,650.6,928.7,598z"/>
		<path class="st0" d="M402,408.8l3.2,2.1c1.1,0.7,2,1.3,3.5,2.2c2.7,1.6,5.4,3,8.1,4.2c5.4,2.5,10.8,4.2,16.2,5.6
			c10.7,2.7,21.1,3.5,31.2,3.4c20.3-0.6,39.7-4.5,59.7-15.2c5-2.8,10-6.1,15-10.4c1.9-1.6,3.8-3.5,5.7-5.4c1-0.9,2.1-2,3.2-3.4
			c19-23.2,19.6-51.1,19.6-51.1h-0.1c0-0.8,0.2-1.5,0.2-2.3c0-22.9-18.6-41.4-41.4-41.4c-22.9,0-41.4,18.6-41.4,41.4
			c0,7.3,1.9,14.1,5.2,20.1c-6.8,4.6-17.5,7.9-27.2,8.3c-5.3,0.3-10.5-0.2-14.9-1.4c-2.2-0.5-4.1-1.3-5.7-2.1
			c-0.8-0.4-1.6-0.8-2.2-1.2c-0.2-0.1-0.9-0.6-1.4-1l-1.6-1.2c-8.5-6.4-12.7-10.4-15.8-19.7c-3.2-9.3-5.5-24-3.1-33.5
			c20.5-74.4,84.2-77.6,126-65.6c5.1,1.7,10.2,4.1,15.2,6.7c5,2.6,10.1,6,14.6,9.2c4.4,3.4,8.7,7,12.7,10.8c3.9,3.9,7.5,8,10.8,12.5
			c12.9,17.7,20.1,40,20.2,63.3c0.3,23.3-6.6,47-19.4,67.7l-0.5,0.8c-8.7,14-6.1,32.6,6.9,43.5c14.2,12,35.4,10.2,47.4-4.1
			c24.4-28.9,39.2-66.1,42-104.8c2.8-38.6-6.9-79.2-29.3-112.5c-11.1-16.6-24.8-31.5-40.5-43.5c-8-6-15.8-11.3-24.4-16
			c-8.6-4.7-17.5-9.1-27-12.5c-9.5-3.5-19.3-6.2-29.4-8.1c-10.1-1.8-20.5-2.6-30.8-2.5c-20.7,0.2-41.2,4.3-60.1,11.6
			s-36.3,17.5-51.3,30.3c-7.5,6.4-14.4,13.4-20.8,20.9c-3.1,3.8-6.2,7.6-9,11.6l-2.1,3l-2.2,3.4c-1.5,2.3-2.8,4.7-4.1,7
			c-21.1,38.1-21.5,85.5-1.7,123.2C370.3,381.5,385.2,397.3,402,408.8z"/>
	</g>
</g>
</svg>
