<?xml version="1.0" encoding="utf-8"?>
<!-- Generator: Adobe Illustrator 21.0.0, SVG Export Plug-In . SVG Version: 6.00 Build 0)  -->
<svg version="1.1" id="图层_1" xmlns="http://www.w3.org/2000/svg" xmlns:xlink="http://www.w3.org/1999/xlink" x="0px" y="0px"
	 viewBox="0 0 150 57" style="enable-background:new 0 0 150 57;" xml:space="preserve">
<style type="text/css">
	.st0{fill:#0082C9;}
	.st1{fill:#FFFFFF;}
</style>
<rect y="0" class="st0" width="150" height="57"/>
<g>
	<path class="st1" d="M33.2,45.6L33.2,45.6c-1.2,0.2-2.4,0.2-3.5-0.1c-1.1-0.2-2-0.7-2.9-1.3c-0.8-0.6-1.5-1.4-2.1-2.2
		c-0.5-0.8-0.9-1.8-1-2.8c-0.3-1.9,0.2-4,1.6-5.5c0.6-0.7,1.4-1.3,2.3-1.7c0.2-0.1,0.5-0.2,0.7-0.3c0.2-0.1,0.5-0.1,0.7-0.2
		c0.2,0,0.5-0.1,0.7-0.1l0.4,0l0.2,0c0.1,0,0.2,0,0.2,0c2.6,0,5.1,0.2,7.4,0.9c1.2,0.3,2.3,0.8,3.4,1.3c1.1,0.5,2.3,1.2,3.4,1.8
		c0.3,0.2,0.6,0.3,0.9,0.5c0.3,0.2,0.6,0.3,0.9,0.5c0.6,0.4,1.3,0.8,1.9,1.1c0.3,0.2,0.7,0.3,1,0.5l1,0.4c0.3,0.2,0.7,0.3,1,0.4
		c0.4,0.1,0.7,0.3,1.1,0.4c1.4,0.5,2.9,0.8,4.5,0.9c0.4,0,0.8,0,1.2,0.1c0.4,0,0.8,0,1.2,0c0.4,0,0.8-0.1,1.2-0.1
		c0.2,0,0.4-0.1,0.6-0.1c0.2,0,0.4-0.1,0.7-0.2c0.9-0.3,1.5-1.2,1.2-2.2c-0.3-0.9-1.2-1.5-2.2-1.2l0,0l0,0l-0.1,0l-0.2,0
		c-0.1,0-0.3,0-0.4,0c-0.3,0-0.6,0-0.9,0c-0.3,0-0.6,0-0.9-0.1c-0.3,0-0.6-0.1-0.9-0.1c-1.2-0.2-2.4-0.6-3.5-1
		c-0.3-0.1-0.6-0.2-0.9-0.4c-0.3-0.1-0.6-0.2-0.8-0.4l-0.8-0.4l-0.8-0.5c-0.6-0.3-1.1-0.7-1.6-1c-0.3-0.2-0.6-0.4-0.8-0.6
		c-0.3-0.2-0.6-0.4-0.9-0.6c-1.2-0.8-2.4-1.6-3.7-2.3c-1.3-0.7-2.7-1.3-4.2-1.8c-1.5-0.5-3-0.8-4.4-1c-1.5-0.2-3-0.3-4.4-0.3
		c-0.1,0-0.2,0-0.3,0l-0.3,0l-0.7,0c-0.4,0-0.9,0.1-1.3,0.2c-0.4,0.1-0.9,0.2-1.3,0.3c-0.4,0.2-0.8,0.3-1.2,0.5
		c-1.6,0.7-3.1,1.8-4.2,3.1c-2.4,2.7-3.4,6.4-2.8,9.9c0.3,1.7,1,3.4,2.1,4.8c1,1.4,2.4,2.6,3.9,3.4c1.5,0.8,3.2,1.2,4.9,1.2
		c0.4,0,0.8,0,1.2-0.1c0.4,0,0.8-0.1,1.2-0.2c0.8-0.2,1.6-0.5,2.3-0.9c0.5-0.3,0.8-0.9,0.8-1.5C34.8,46.1,34,45.5,33.2,45.6z"/>
	<path class="st1" d="M73.5,36.2c-0.3-1.7-1-3.4-2.1-4.8c-1-1.4-2.4-2.6-3.9-3.4c-1.5-0.8-3.2-1.2-4.9-1.2c-0.4,0-0.8,0-1.2,0.1
		c-0.4,0-0.8,0.1-1.2,0.2c-0.8,0.2-1.6,0.5-2.3,0.9c-0.5,0.3-0.8,0.9-0.8,1.5c0.1,0.8,0.9,1.4,1.7,1.2l0.1,0
		c1.2-0.2,2.3-0.1,3.4,0.1c1.1,0.2,2,0.7,2.9,1.3c0.8,0.6,1.5,1.4,2.1,2.2c0.5,0.8,0.9,1.8,1,2.8c0.3,1.9-0.2,4-1.6,5.5
		c-0.6,0.7-1.4,1.3-2.3,1.7c-0.2,0.1-0.5,0.2-0.7,0.3c-0.2,0.1-0.5,0.1-0.7,0.2c-0.2,0-0.5,0.1-0.7,0.1l-0.4,0l-0.2,0
		c-0.1,0-0.2,0-0.2,0c-2.6,0-5.1-0.2-7.4-0.9c-1.2-0.3-2.3-0.8-3.4-1.3c-1.1-0.5-2.3-1.2-3.4-1.8c-0.3-0.2-0.6-0.3-0.9-0.5
		c-0.3-0.2-0.6-0.3-0.9-0.5c-0.6-0.4-1.3-0.8-1.9-1.1c-0.3-0.2-0.7-0.3-1-0.5l-1-0.4c-0.3-0.2-0.7-0.3-1-0.4
		c-0.4-0.1-0.7-0.3-1.1-0.4c-1.4-0.5-2.9-0.8-4.5-0.9c-0.4,0-0.8,0-1.2-0.1c-0.4,0-0.8,0-1.2,0c-0.4,0-0.8,0.1-1.2,0.1
		c-0.2,0-0.4,0.1-0.6,0.1c-0.2,0-0.4,0.1-0.7,0.2c-0.9,0.3-1.5,1.2-1.2,2.2c0.3,0.9,1.2,1.5,2.2,1.2l0,0l0,0l0.1,0l0.2,0
		c0.1,0,0.3,0,0.4,0c0.3,0,0.6,0,0.9,0c0.3,0,0.6,0,0.9,0.1c0.3,0,0.6,0.1,0.9,0.1c1.2,0.2,2.4,0.6,3.5,1c0.3,0.1,0.6,0.2,0.9,0.4
		c0.3,0.1,0.6,0.2,0.8,0.4l0.8,0.4l0.8,0.5c0.6,0.3,1.1,0.7,1.6,1c0.3,0.2,0.6,0.4,0.8,0.6c0.3,0.2,0.6,0.4,0.9,0.6
		c1.2,0.8,2.4,1.6,3.7,2.3c1.3,0.7,2.7,1.3,4.2,1.8c1.5,0.5,3,0.8,4.4,1c1.5,0.2,3,0.3,4.4,0.3c0.1,0,0.2,0,0.3,0l0.3,0l0.7,0
		c0.4,0,0.9-0.1,1.3-0.2c0.4-0.1,0.9-0.2,1.3-0.3c0.4-0.2,0.8-0.3,1.2-0.5c1.6-0.7,3.1-1.8,4.2-3.1C73.1,43.5,74.1,39.7,73.5,36.2z"
		/>
	<path class="st1" d="M38.7,23.7l0.2,0.1c0.1,0,0.1,0.1,0.2,0.1c0.2,0.1,0.4,0.2,0.5,0.3c0.4,0.2,0.7,0.3,1.1,0.4
		c0.7,0.2,1.4,0.2,2.1,0.2c1.3,0,2.6-0.3,3.9-1c0.3-0.2,0.7-0.4,1-0.7c0.1-0.1,0.3-0.2,0.4-0.4c0.1-0.1,0.1-0.1,0.2-0.2
		c1.3-1.5,1.3-3.4,1.3-3.4l0,0c0-0.1,0-0.1,0-0.2c0-1.5-1.2-2.7-2.7-2.7c-1.5,0-2.7,1.2-2.7,2.7c0,0.5,0.1,0.9,0.3,1.3
		c-0.5,0.3-1.2,0.5-1.8,0.5c-0.4,0-0.7,0-1-0.1c-0.1,0-0.3-0.1-0.4-0.1c-0.1,0-0.1-0.1-0.1-0.1c0,0-0.1,0-0.1-0.1L41,20.5
		c-0.6-0.4-0.8-0.7-1-1.3c-0.2-0.6-0.4-1.6-0.2-2.2c1.4-4.9,5.6-5.1,8.3-4.3c0.3,0.1,0.7,0.3,1,0.4c0.3,0.2,0.7,0.4,1,0.6
		c0.3,0.2,0.6,0.5,0.8,0.7c0.3,0.3,0.5,0.5,0.7,0.8c0.9,1.2,1.3,2.6,1.3,4.2c0,1.5-0.4,3.1-1.3,4.5l0,0.1c-0.6,0.9-0.4,2.1,0.5,2.9
		c0.9,0.8,2.3,0.7,3.1-0.3c1.6-1.9,2.6-4.4,2.8-6.9c0.2-2.5-0.5-5.2-1.9-7.4c-0.7-1.1-1.6-2.1-2.7-2.9c-0.5-0.4-1-0.7-1.6-1.1
		C51.2,8,50.6,7.7,50,7.4C49.3,7.2,48.7,7,48,6.9c-0.7-0.1-1.4-0.2-2-0.2c-1.4,0-2.7,0.3-4,0.8c-1.2,0.5-2.4,1.2-3.4,2
		c-0.5,0.4-1,0.9-1.4,1.4c-0.2,0.2-0.4,0.5-0.6,0.8l-0.1,0.2l-0.1,0.2c-0.1,0.2-0.2,0.3-0.3,0.5c-1.4,2.5-1.4,5.6-0.1,8.1
		C36.6,21.9,37.6,23,38.7,23.7z"/>
</g>
</svg>
