<?xml version="1.0" encoding="utf-8"?>
<!-- Generator: Adobe Illustrator 21.0.0, SVG Export Plug-In . SVG Version: 6.00 Build 0)  -->
<svg version="1.1"
	 id="svg2" inkscape:export-filename="nextcloud-icon-512.png" inkscape:export-xdpi="45" inkscape:export-ydpi="45" inkscape:version="0.91 r13725" sodipodi:docname="welcome.svg" xmlns:cc="http://creativecommons.org/ns#" xmlns:dc="http://purl.org/dc/elements/1.1/" xmlns:inkscape="http://www.inkscape.org/namespaces/inkscape" xmlns:rdf="http://www.w3.org/1999/02/22-rdf-syntax-ns#" xmlns:sodipodi="http://sodipodi.sourceforge.net/DTD/sodipodi-0.dtd" xmlns:svg="http://www.w3.org/2000/svg"
	 xmlns="http://www.w3.org/2000/svg" xmlns:xlink="http://www.w3.org/1999/xlink" x="0px" y="0px" viewBox="0 0 164 314"
	 style="enable-background:new 0 0 164 314;" xml:space="preserve">
<style type="text/css">
	.st0{clip-path:url(#SVGID_2_);enable-background:new    ;}
	.st1{fill:#FFFFFF;}
</style>
<sodipodi:namedview  bordercolor="#666666" borderopacity="1" fit-margin-bottom="0" fit-margin-left="0" fit-margin-right="0" fit-margin-top="0" gridtolerance="10" guidetolerance="10" id="namedview8" inkscape:current-layer="svg2" inkscape:cx="253.06254" inkscape:cy="244.21149" inkscape:pageopacity="0" inkscape:pageshadow="2" inkscape:window-height="480" inkscape:window-width="640" inkscape:zoom="1.28" objecttolerance="10" pagecolor="#ffffff" showgrid="false">
	</sodipodi:namedview>
<g>
	<g>
		<defs>
			<rect id="SVGID_1_" width="164" height="314"/>
		</defs>
		<clipPath id="SVGID_2_">
			<use xlink:href="#SVGID_1_"  style="overflow:visible;"/>
		</clipPath>
		<g class="st0">
			
				<image style="overflow:visible;enable-background:new    ;" width="1920" height="1280" id="image4891" xlink:href="DC10A4FF.jpeg"  transform="matrix(0.2453 0 0 0.2453 -129.356 0)">
			</image>
		</g>
	</g>
</g>
<g>
	<path class="st1" d="M64.1,112.9L64.1,112.9c-1.7,0.2-3.3,0.2-4.8-0.2c-1.5-0.3-2.8-1-4-1.8s-2.1-1.9-2.9-3.1
		c-0.7-1.2-1.2-2.5-1.4-3.9c-0.4-2.7,0.3-5.6,2.2-7.6c0.9-1,2-1.9,3.3-2.4c0.3-0.2,0.6-0.2,0.9-0.4c0.3-0.1,0.7-0.2,1-0.3
		c0.3,0,0.7-0.1,1-0.1h0.5h0.3c0.1,0,0.2,0,0.3,0c3.6,0,7.1,0.3,10.4,1.2c1.6,0.5,3.2,1.1,4.8,1.8c1.6,0.8,3.2,1.6,4.7,2.6
		c0.4,0.2,0.8,0.5,1.2,0.7c0.4,0.2,0.8,0.5,1.2,0.8c0.9,0.5,1.8,1.1,2.7,1.5c0.5,0.2,0.9,0.5,1.4,0.7l1.4,0.6c0.5,0.2,1,0.4,1.5,0.6
		s1,0.4,1.5,0.5c2,0.7,4.1,1.1,6.2,1.2c0.5,0.1,1.1,0.1,1.6,0.1s1.1,0,1.6,0s1.1-0.1,1.7-0.2c0.3,0,0.6-0.1,0.8-0.1
		c0.3-0.1,0.5-0.1,1-0.2c1.3-0.4,2.1-1.7,1.7-3s-1.7-2.1-3-1.7l0,0h-0.1h-0.1h-0.3c-0.2,0-0.4,0-0.6,0c-0.4,0-0.8,0-1.2,0
		c-0.4,0-0.8-0.1-1.2-0.1c-0.4-0.1-0.8-0.1-1.3-0.2c-1.7-0.3-3.3-0.8-4.9-1.4c-0.4-0.1-0.8-0.3-1.2-0.5c-0.4-0.2-0.8-0.3-1.2-0.6
		l-1.2-0.6l-1.1-0.7c-0.8-0.4-1.5-0.9-2.2-1.4c-0.4-0.2-0.8-0.5-1.2-0.8c-0.4-0.3-0.8-0.6-1.2-0.8c-1.6-1.1-3.4-2.2-5.2-3.2
		c-1.9-1-3.8-1.8-5.9-2.5c-2-0.7-4.1-1.1-6.2-1.4s-4.1-0.4-6.2-0.4c-0.1,0-0.2,0-0.4,0h-0.5h-0.9c-0.6,0-1.2,0.2-1.8,0.2
		c-0.6,0.1-1.2,0.3-1.8,0.5s-1.2,0.4-1.7,0.7c-2.3,1-4.3,2.5-5.9,4.4c-3.3,3.7-4.7,9-3.9,13.8c0.4,2.4,1.4,4.8,2.9,6.7
		c1.5,2,3.4,3.6,5.5,4.7s4.5,1.7,6.9,1.7c0.6,0,1.2,0,1.7-0.1c0.6-0.1,1.1-0.2,1.7-0.3c1.1-0.3,2.2-0.7,3.2-1.2
		c0.7-0.4,1.2-1.2,1.1-2.1C66.3,113.5,65.3,112.7,64.1,112.9z"/>
	<path class="st1" d="M120.4,99.7c-0.4-2.4-1.4-4.8-2.9-6.7c-1.5-2-3.4-3.6-5.5-4.7s-4.5-1.7-6.9-1.7c-0.6,0-1.2,0-1.7,0.1
		c-0.6,0.1-1.1,0.2-1.7,0.3c-1.1,0.3-2.2,0.7-3.2,1.2c-0.7,0.4-1.2,1.2-1.1,2.1c0.2,1.1,1.2,1.9,2.3,1.7h0.1
		c1.6-0.2,3.2-0.2,4.7,0.2c1.5,0.3,2.8,1,4,1.8s2.1,1.9,2.9,3.1c0.7,1.2,1.2,2.5,1.4,3.9c0.4,2.7-0.3,5.6-2.2,7.6
		c-0.9,1-2,1.9-3.3,2.4c-0.3,0.2-0.6,0.2-0.9,0.4c-0.3,0.1-0.7,0.2-1,0.3c-0.3,0-0.7,0.1-1,0.1h-0.5h-0.3c-0.1,0-0.2,0-0.3,0
		c-3.6,0-7.1-0.3-10.4-1.2c-1.6-0.5-3.2-1.1-4.8-1.8c-1.6-0.8-3.2-1.6-4.7-2.6c-0.4-0.2-0.8-0.5-1.2-0.7c-0.4-0.2-0.8-0.5-1.2-0.8
		c-0.9-0.5-1.8-1.1-2.7-1.5c-0.5-0.2-0.9-0.5-1.4-0.7l-1.4-0.6c-0.5-0.2-1-0.4-1.5-0.6s-1-0.4-1.5-0.5c-2-0.7-4.1-1.1-6.2-1.2
		c-0.5-0.1-1.1-0.1-1.6-0.1s-1.1,0-1.6,0s-1.1,0.1-1.7,0.2c-0.3,0-0.6,0.1-0.8,0.1c-0.3,0.1-0.5,0.1-1,0.2c-1.3,0.4-2.1,1.7-1.7,3
		c0.4,1.3,1.7,2.1,3,1.7l0,0H61h0.1h0.3c0.2,0,0.4,0,0.6,0c0.4,0,0.8,0,1.2,0s0.8,0.1,1.2,0.1c0.4,0.1,0.8,0.1,1.3,0.2
		c1.7,0.3,3.3,0.8,4.9,1.4c0.4,0.1,0.8,0.3,1.2,0.5c0.4,0.2,0.8,0.3,1.2,0.6l1.2,0.6l1.1,0.7c0.8,0.4,1.5,0.9,2.2,1.4
		c0.4,0.2,0.8,0.5,1.2,0.8c0.4,0.3,0.8,0.6,1.2,0.8c1.6,1.1,3.4,2.2,5.2,3.2c1.9,1,3.8,1.8,5.9,2.5c2,0.7,4.1,1.1,6.2,1.4
		s4.1,0.4,6.2,0.4c0.1,0,0.2,0,0.4,0h0.5h0.9c0.6,0,1.2-0.2,1.8-0.2c0.6-0.1,1.2-0.3,1.8-0.5c0.6-0.2,1.2-0.4,1.7-0.7
		c2.3-1,4.3-2.5,5.9-4.4C119.8,109.8,121.3,104.6,120.4,99.7z"/>
	<path class="st1" d="M71.9,82.3l0.3,0.2c0.1,0.1,0.2,0.1,0.3,0.2c0.2,0.1,0.5,0.3,0.7,0.4c0.5,0.2,1,0.4,1.5,0.5
		c1,0.2,1.9,0.3,2.9,0.3c1.9-0.1,3.7-0.4,5.5-1.4c0.5-0.3,0.9-0.6,1.4-1c0.2-0.1,0.4-0.3,0.5-0.5c0.1-0.1,0.2-0.2,0.3-0.3
		c1.7-2.1,1.8-4.7,1.8-4.7l0,0c0-0.1,0-0.1,0-0.2c0-2.1-1.7-3.8-3.8-3.8c-2.1,0-3.8,1.7-3.8,3.8c0,0.7,0.2,1.3,0.5,1.8
		c-0.6,0.4-1.6,0.7-2.5,0.8c-0.5,0-1,0-1.4-0.1c-0.2,0-0.4-0.1-0.5-0.2c-0.1,0-0.1-0.1-0.2-0.1l-0.1-0.1L75,77.8
		c-0.8-0.6-1.2-1-1.5-1.8c-0.3-0.9-0.5-2.2-0.3-3.1c1.9-6.9,7.8-7.2,11.6-6c0.5,0.2,0.9,0.4,1.4,0.6s0.9,0.6,1.3,0.8
		c0.4,0.3,0.8,0.6,1.2,1c0.4,0.4,0.7,0.7,1,1.2c1.2,1.6,1.9,3.7,1.9,5.8c0,2.1-0.6,4.3-1.8,6.2v0.1c-0.8,1.3-0.6,3,0.6,4
		c1.3,1.1,3.3,0.9,4.4-0.4c2.2-2.7,3.6-6.1,3.9-9.7C99,73,98.1,69.3,96,66.2c-1-1.5-2.3-2.9-3.7-4c-0.7-0.5-1.5-1-2.2-1.5
		c-0.8-0.4-1.6-0.8-2.5-1.2c-0.9-0.3-1.8-0.6-2.7-0.7c-0.9-0.2-1.9-0.2-2.8-0.2c-1.9,0-3.8,0.4-5.5,1.1c-1.7,0.7-3.3,1.6-4.7,2.8
		c-0.7,0.6-1.3,1.2-1.9,1.9c-0.3,0.3-0.6,0.7-0.8,1.1L69,65.8L68.6,66c-0.1,0.2-0.3,0.4-0.4,0.6c-1.9,3.5-2,7.9-0.2,11.4
		C68.9,79.8,70.3,81.2,71.9,82.3z"/>
</g>
</svg>
